<?xml version="1.0" encoding="utf-8"?>
<!-- Generator: Adobe Illustrator 19.0.0, SVG Export Plug-In . SVG Version: 6.00 Build 0)  -->
<svg version="1.1" id="Layer_1" xmlns="http://www.w3.org/2000/svg" xmlns:xlink="http://www.w3.org/1999/xlink" x="0px" y="0px"
	 viewBox="69.3 -7.4 512.7 160.4" style="enable-background:new 69.3 -7.4 512.7 160.4;" xml:space="preserve">
<style type="text/css">
	.st0{fill:#FFFFFF;}
</style>
<!-- <rect x="63" y="-14.4" width="529" height="175"/> -->
<g>
	<polygon class="st0" points="100,17.6 100,128 245.2,128 245.2,96.4 147.3,96.4 147.3,88.6 245.2,88.6 245.2,57 147.3,57
		147.3,49.1 245.2,49.1 245.2,17.6 	"/>
	<polygon class="st0" points="253.1,17.6 253.1,128 300.4,128 300.4,88.6 398.2,88.6 398.2,57 300.4,57 300.4,49.1 398.2,49.1
		398.2,17.6 	"/>
	<polygon class="st0" points="406.1,17.6 406.1,128 453.4,128 453.4,88.6 551.3,88.6 551.3,57 453.4,57 453.4,49.1 551.3,49.1
		551.3,17.6 	"/>
</g>
</svg>
